<svg xmlns="http://www.w3.org/2000/svg" width="32" height="32" viewBox="0 0 24 24" fill="none">
  <defs>
    <linearGradient id="g" x1="0" y1="0" x2="1" y2="1">
      <stop offset="0%" stop-color="#22c55e"/>
      <stop offset="100%" stop-color="#16a34a"/>
    </linearGradient>
  </defs>
  <path d="M12 3c4.97 0 9 4.03 9 9 0 4.42-3.2 8.1-7.42 8.86-2.28.4-4.35-1.25-4.35-3.56V16c0-1.1.9-2 2-2h1c2.76 0 5-2.24 5-5 0-1.66-1.34-3-3-3h-2.5C10.12 6 8 8.12 8 10.75V12c0 2.21-1.79 4-4 4H3.5" stroke="url(#g)" stroke-width="2" stroke-linecap="round" stroke-linejoin="round"/>
  <circle cx="6" cy="16" r="1.5" fill="#22c55e"/>
</svg>
